# xmcd CD database file
#
# Track frame offsets:
#	182
#	23582
#	45892
#	84267
#	103420
#	140517
#	164762
#	185397
#	206850
#	223902
#	254992
#
# Disc length: 3779 seconds
#
# Revision: 0
# Processed by: cddbd v1.5.1PL2 Copyright (c) Steve Scherf et al.
# Submitted via: CDex 1.50
#
DISCID=a50ec10b
DTITLE=Various Artist - Le Carnet des nouvelles tendances du Jazz
DYEAR=1997
DGENRE=Jazz
TTITLE0=Red Sun - Samuel Nori, Things Change
TTITLE1=Bugge Wesseltoft, Trouble
TTITLE2=Ahmad Jamal, Manhattan Reflections
TTITLE3=Jayne Cortez, I Have Been Searching
TTITLE4=Bheki Mseleku, Suluman Saud
TTITLE5=Denis Rollins, Night Shift
TTITLE6=Zip, One Oclock Jump - What the Funk
TTITLE7=Ben Neill, Triptycal
TTITLE8=Mavis Staples and Lucky Peterson, Wade in the water
TTITLE9=Abbey Lincoln, Mr Tambourine Man
TTITLE10=The Grassy Knoll, 1961
EXTD=YEAR: 1997
EXTT0=
EXTT1=
EXTT2=
EXTT3=
EXTT4=
EXTT5=
EXTT6=
EXTT7=
EXTT8=
EXTT9=
EXTT10=
PLAYORDER=
